<?xml version="1.0" encoding="utf-8"?>
<!-- Generator: Adobe Illustrator 25.0.0, SVG Export Plug-In . SVG Version: 6.00 Build 0)  -->
<svg version="1.1" id="Layer_1" xmlns="http://www.w3.org/2000/svg" xmlns:xlink="http://www.w3.org/1999/xlink" x="0px" y="0px"
	 viewBox="0 0 500 350" style="enable-background:new 0 0 500 350;" xml:space="preserve">
<style type="text/css">
	.st0{fill:#E5D4D3;}
	.st1{fill:none;}
	.st2{fill:#1D252C;}
</style>
<g>
	<g>
		<path class="st0" d="M151.08,340.73c3.94,0.59,7.92,0.92,11.9,1c3.88,0.08,7.78-0.01,11.65-0.37c7.97-0.75,15.89-2.26,23.48-4.82
			c13.35-4.5,25.88-10.94,38.31-17.5c11.46-6.05,22.91-12.11,34.77-17.36c4.62-1.95,9.27-3.82,14.01-5.48
			c4.64-1.63,9.32-3.11,14.04-4.48c3.2-0.87,6.4-1.72,9.63-2.48c12.99-3.08,26.15-5.34,39.21-8.07c7.09-1.48,14.16-3.23,21.08-5.42
			c6.83-2.16,13.48-4.99,19.78-8.39c3.39-1.84,6.77-3.78,9.93-6.01c3.1-2.18,6.18-4.5,8.96-7.08c2.75-2.56,5.35-5.29,7.66-8.25
			c1.27-1.63,2.55-3.26,3.71-4.97c1.05-1.54,2.01-3.12,2.95-4.72c2.88-5.06,5.43-10.3,7.19-15.87c0.71-2.24,1.37-4.52,1.83-6.83
			c0.38-1.91,0.61-3.86,0.84-5.79c0.3-2.54,0.45-5.09,0.48-7.65c0.01-0.57,0.01-1.13,0-1.7c0.08-0.9,0.14-1.79,0.2-2.69
			c0.15-2.26,0.11-4.58,0.04-6.83c-0.06-1.73-0.17-3.45-0.34-5.17c-0.8-7.98-2.72-15.94-5.59-23.42
			c-2.87-7.49-6.74-14.49-11.38-21.04c-1.32-1.86-2.76-3.62-4.19-5.4c-0.99-1.23-2.06-2.44-3.16-3.57
			c-2.86-2.93-5.75-5.79-8.98-8.32c-3.19-2.51-6.45-4.83-9.92-6.93c-3.44-2.07-6.96-3.94-10.57-5.67
			c-6.13-2.95-12.46-5.46-18.74-8.04c-5.73-2.42-11.36-4.99-16.79-8.02c-2.76-1.7-5.43-3.51-8.04-5.45
			c-2.67-2.18-5.22-4.46-7.69-6.85c-5-5.18-9.62-10.68-14.08-16.33c-3.44-4.46-6.8-8.97-10.2-13.46
			c-4.31-5.69-8.63-11.47-13.56-16.64c-5.56-5.83-11.58-11.16-18.3-15.62c-3.8-2.52-7.8-4.68-12.03-6.4
			c-2.24-0.91-4.44-1.66-6.79-2.28c-1.72-0.46-3.42-0.84-5.16-1.19c-0.86-0.17-1.76-0.24-2.63-0.35c-1.5-0.2-2.95-0.35-4.45-0.46
			c-2.27-0.17-4.57-0.14-6.84-0.06c-4.26,0.16-8.44,0.73-12.64,1.49c-1.5,0.27-2.99,0.66-4.47,1.07c-2.22,0.61-4.46,1.18-6.62,1.98
			c-3.75,1.38-7.48,2.87-11.06,4.65c-3.7,1.85-7.28,3.9-10.79,6.12c-2.93,1.85-5.67,3.92-8.39,6.04
			c-6.73,5.29-12.86,11.49-17.83,18.48c-1.03,1.45-2.09,2.89-3.01,4.41c-1.28,2.12-2.51,4.24-3.71,6.39
			c-0.29,0.51-0.56,1.03-0.83,1.56c-1.51,2.95-2.76,6.06-3.96,9.15c-2.46,6.35-4.43,12.87-6.21,19.45
			c-3.62,13.39-6.33,26.96-9.79,40.38c-0.06,0.21-0.11,0.42-0.17,0.64c-1.95,7.24-4.27,14.34-7.04,21.31
			c-2.24,5.16-4.72,10.17-7.47,15.08c-3.1,5.18-6.42,10.2-9.97,15.09c-3.8,5.23-7.73,10.36-11.48,15.62
			c-4.33,6.08-8.42,12.29-11.98,18.86c-1.7,3.13-3.27,6.3-4.71,9.55c-1.55,3.5-2.99,7.13-4.06,10.82c-1.17,4.03-2.16,8.05-2.84,12.2
			c-0.72,4.44-1.04,8.94-0.94,13.44c0.09,4.16,0.58,8.23,1.34,12.33c0.41,2.2,1.05,4.36,1.69,6.49c0.47,1.55,0.95,3.12,1.57,4.62
			c1.6,3.9,3.31,7.67,5.39,11.33c2.2,3.87,4.68,7.59,7.52,11.02c5.04,6.1,10.87,11.66,17.44,16.12c6.6,4.47,13.6,8.2,21.06,11.01
			C136.36,337.64,143.63,339.62,151.08,340.73z"/>
	</g>
	<path class="st1" d="M189.97,179.08c-0.96-1.31-1.91-2.62-2.88-3.93c-17.85-23.97-15.16-59.92,6.11-81.85
		c12.68-13.07,27.64-19.89,44.6-20.37V53.91c0-5.01-4.08-9.09-9.08-9.09H82.66c-6.4,0-11.62,5.21-11.62,11.62v173.37
		c0,1.5,0.82,2.77,2.19,3.39c1.37,0.62,2.86,0.4,3.99-0.59l29.27-25.68h101.83c-3.3-6.92-7.58-13.78-12.94-20.61
		C193.51,183.95,191.74,181.51,189.97,179.08z"/>
	<g>
		<g>
			<g>
				<path class="st1" d="M279.62,194.67c-8.99,12.82-14.01,27.35-14.92,43.2c-0.11,1.95-0.5,3.26-1.29,4.12
					c0.9,1.11,1.45,2.5,1.45,4.04c0,1.87-0.8,3.54-2.07,4.72c1.27,1.18,2.07,2.85,2.07,4.72c0,1.82-0.76,3.47-1.98,4.64
					c1.22,1.18,1.98,2.82,1.98,4.64c0,3.57-2.9,6.48-6.48,6.48h-15.7v20.64c0,6.4,5.21,11.62,11.62,11.62H374l29.27,25.68
					c1.13,0.99,2.63,1.21,3.99,0.59c1.37-0.62,2.19-1.89,2.19-3.39V152.99c0-6.4-5.21-11.62-11.61-11.62h-92
					c-0.52,12.96-4.9,24.89-13.11,35.62C288.67,182.28,283.99,188.44,279.62,194.67z"/>
				<path class="st1" d="M261.05,255.46c0-1.47-1.19-2.66-2.66-2.66h-15.7v5.31h15.7C259.85,258.12,261.05,256.93,261.05,255.46z"/>
				<path class="st1" d="M261.05,264.75c0-1.46-1.19-2.66-2.66-2.66h-15.7v5.31h15.7C259.85,267.4,261.05,266.21,261.05,264.75z"/>
				<path class="st1" d="M261.05,246.02c0-1.46-1.19-2.66-2.66-2.66h-15.7v5.31h15.7C259.85,248.68,261.05,247.49,261.05,246.02z"/>
				<path class="st1" d="M223.16,243.37c-1.46,0-2.66,1.19-2.66,2.66c0,1.47,1.19,2.66,2.66,2.66h15.7v-5.31H223.16z"/>
				<path class="st1" d="M223.16,262.09c-1.46,0-2.66,1.19-2.66,2.66c0,1.47,1.19,2.66,2.66,2.66h15.7v-5.31H223.16z"/>
				<path class="st1" d="M223.16,252.8c-1.46,0-2.66,1.19-2.66,2.66c0,1.46,1.19,2.66,2.66,2.66h15.7v-5.31H223.16z"/>
				<path class="st2" d="M238.86,248.98v-0.3h-15.7c-1.46,0-2.66-1.19-2.66-2.66c0-1.46,1.19-2.66,2.66-2.66h15.7v-0.03l-3.59,0
					c-4.48-0.01-8.94-0.02-13.42,0.03c-0.04,0-0.09,0-0.13,0c-1.76,0-2.93-0.48-3.74-1.19c-0.81,1.08-1.3,2.4-1.3,3.85
					c0,1.87,0.8,3.54,2.07,4.72c1.16-1.08,2.7-1.76,4.4-1.76H238.86z"/>
				<path class="st2" d="M258.96,243.34c-4.37,0.02-8.74,0.02-13.11,0.01l-3.17,0v0.03h15.7c1.47,0,2.66,1.19,2.66,2.66
					c0,1.47-1.19,2.66-2.66,2.66h-15.7v0.3h15.7c1.71,0,3.25,0.68,4.41,1.76c1.27-1.18,2.07-2.85,2.07-4.72
					c0-1.53-0.56-2.93-1.45-4.04C262.52,242.94,261.13,243.33,258.96,243.34z"/>
				<path class="st2" d="M245.85,243.34c4.37,0.01,8.74,0.01,13.11-0.01c2.16-0.01,3.56-0.4,4.45-1.35
					c-1.19-1.47-2.99-2.44-5.02-2.44h-15.7v3.79L245.85,243.34z"/>
				<path class="st2" d="M221.85,243.36c4.48-0.05,8.95-0.04,13.42-0.03l3.59,0v-3.79h-15.7c-2.12,0-3.99,1.04-5.18,2.62
					c0.8,0.71,1.98,1.19,3.74,1.19C221.77,243.37,221.81,243.36,221.85,243.36z"/>
				<path class="st2" d="M238.86,258.27v-0.15h-15.7c-1.46,0-2.66-1.19-2.66-2.66c0-1.47,1.19-2.66,2.66-2.66h15.7v-0.3h-15.7
					c-1.71,0-3.25-0.68-4.4-1.76c-1.27,1.18-2.07,2.85-2.07,4.72c0,1.82,0.76,3.47,1.98,4.64c1.17-1.13,2.75-1.83,4.5-1.83H238.86z"
					/>
				<path class="st2" d="M242.68,252.5v0.3h15.7c1.47,0,2.66,1.19,2.66,2.66c0,1.46-1.19,2.66-2.66,2.66h-15.7v0.15h15.7
					c1.75,0,3.33,0.7,4.5,1.83c1.22-1.18,1.98-2.82,1.98-4.64c0-1.87-0.8-3.54-2.07-4.72c-1.16,1.08-2.7,1.76-4.41,1.76H242.68z"/>
				<path class="st2" d="M242.68,248.98v3.51h15.7c1.71,0,3.25-0.68,4.41-1.76c-1.16-1.08-2.7-1.76-4.41-1.76H242.68z"/>
				<path class="st2" d="M238.86,252.5v-3.51h-15.7c-1.71,0-3.25,0.68-4.4,1.76c1.16,1.08,2.7,1.76,4.4,1.76H238.86z"/>
				<path class="st2" d="M264.86,264.75c0-1.82-0.76-3.47-1.98-4.64c-1.17,1.13-2.75,1.83-4.5,1.83h-15.7v0.15h15.7
					c1.47,0,2.66,1.19,2.66,2.66c0,1.47-1.19,2.66-2.66,2.66h-15.7v3.82h15.7C261.96,271.22,264.86,268.32,264.86,264.75z"/>
				<path class="st2" d="M238.86,261.94v-3.66h-15.7c-1.75,0-3.33,0.7-4.5,1.83c1.17,1.13,2.75,1.83,4.5,1.83H238.86z"/>
				<path class="st2" d="M242.68,258.27v3.66h15.7c1.75,0,3.33-0.7,4.5-1.83c-1.17-1.13-2.75-1.83-4.5-1.83H242.68z"/>
				<path class="st2" d="M397.82,137.56h-91.96c0.02,1.28,0.02,2.56-0.03,3.82h92c6.4,0,11.61,5.21,11.61,11.62v173.37
					c0,1.5-0.82,2.77-2.19,3.39c-1.36,0.62-2.85,0.4-3.99-0.59L374,303.48H254.3c-6.4,0-11.62-5.21-11.62-11.62v-20.64h-3.82v20.64
					c0,8.51,6.92,15.43,15.43,15.43h118.26l28.19,24.73c1.42,1.24,3.17,1.89,4.95,1.89c1.06,0,2.12-0.23,3.14-0.69
					c2.73-1.24,4.43-3.87,4.43-6.87V152.99C413.26,144.48,406.33,137.56,397.82,137.56z"/>
				<path class="st2" d="M301.99,141.38h3.83c0.05-1.26,0.06-2.54,0.03-3.82h-3.82C302.06,138.84,302.05,140.12,301.99,141.38z"/>
				
					<rect x="240.76" y="237.62" transform="matrix(1.200274e-03 -1 1 1.200274e-03 0.9521 480.0198)" class="st2" width="0.03" height="3.82"/>
				<rect x="238.86" y="243.34" class="st2" width="3.82" height="0.03"/>
				<rect x="238.86" y="248.68" class="st2" width="3.82" height="0.3"/>
				<rect x="238.86" y="239.55" class="st2" width="3.82" height="3.79"/>
				<rect x="238.86" y="252.5" class="st2" width="3.82" height="0.3"/>
				<rect x="238.86" y="258.12" class="st2" width="3.82" height="0.15"/>
				<rect x="238.86" y="248.98" class="st2" width="3.82" height="3.51"/>
				<rect x="238.86" y="267.4" class="st2" width="3.82" height="3.82"/>
				<rect x="238.86" y="261.94" class="st2" width="3.82" height="0.15"/>
				<rect x="238.86" y="258.27" class="st2" width="3.82" height="3.66"/>
				<path class="st2" d="M305.04,127.99c-3.9-25.49-22.5-45.79-46.88-52.6v4.01c22.44,6.69,39.49,25.56,43.1,49.17
					c0.47,3.05,0.72,6.05,0.77,8.99h3.82C305.8,134.43,305.54,131.24,305.04,127.99z"/>
				<path class="st2" d="M299.43,155.93c-2.03,6.61-5.26,12.88-9.75,18.75c-4.07,5.31-8.78,11.51-13.19,17.79
					c-9.4,13.41-14.65,28.61-15.61,45.18c-0.08,1.34-0.21,1.69-0.19,1.71c-0.09,0.05-0.44,0.16-1.75,0.17
					c-4.37,0.01-8.73,0.01-13.1,0.01l-3.17,0v0.03h15.7c2.04,0,3.83,0.96,5.02,2.44c0.79-0.86,1.18-2.17,1.29-4.12
					c0.91-15.85,5.93-30.39,14.92-43.2c4.37-6.22,9.05-12.38,13.09-17.67c5.03-6.58,8.59-13.62,10.73-21.07H299.43z"/>
				<path class="st2" d="M235.29,239.51c-4.5-0.01-8.99-0.02-13.48,0.03c-1.5,0.02-1.5-0.24-1.55-1.23
					c-0.21-4.52-0.83-8.97-1.76-13.37h-3.93c1.01,4.46,1.66,8.97,1.88,13.55c0.06,1.29,0.45,2.7,1.55,3.68
					c1.18-1.58,3.05-2.62,5.18-2.62h15.7v-0.03L235.29,239.51z"/>
				<path class="st2" d="M223.16,261.94c-1.75,0-3.33-0.7-4.5-1.83c-1.22,1.18-1.98,2.82-1.98,4.64c0,3.57,2.9,6.48,6.47,6.48h3.81
					v-3.82h-3.81c-1.46,0-2.66-1.19-2.66-2.66c0-1.46,1.19-2.66,2.66-2.66h15.7v-0.15H223.16z"/>
			</g>
		</g>
		<g>
			<path class="st2" d="M187.09,175.15c0.97,1.3,1.92,2.61,2.88,3.93c1.77,2.44,3.54,4.87,5.4,7.24
				c5.37,6.84,9.64,13.69,12.94,20.61h4.26c-3.52-7.74-8.23-15.37-14.2-22.97c-1.83-2.33-3.58-4.73-5.32-7.13
				c-0.96-1.32-1.93-2.65-2.9-3.96c-16.76-22.51-14.22-56.29,5.78-76.91c11.91-12.28,25.97-18.66,41.86-19.16v-3.87
				c-16.96,0.48-31.92,7.29-44.6,20.37C171.92,115.23,169.24,151.18,187.09,175.15z"/>
			<path class="st2" d="M82.66,44.83c-6.4,0-11.62,5.21-11.62,11.62v173.37c0,1.5,0.82,2.77,2.19,3.39c1.37,0.62,2.86,0.4,3.99-0.59
				l29.27-25.68h101.83c0.61,1.27,1.18,2.54,1.72,3.82H107.92l-28.19,24.73c-1.42,1.24-3.16,1.89-4.95,1.89
				c-1.06,0-2.12-0.23-3.14-0.68c-2.73-1.24-4.43-3.87-4.43-6.87V56.44c0-8.51,6.92-15.43,15.43-15.43h146.05
				c7.11,0,12.9,5.79,12.9,12.9v19.02c-1.28-0.03-2.56-0.03-3.82,0V53.91c0-5.01-4.08-9.09-9.08-9.09H82.66z"/>
		</g>
	</g>
	<path class="st2" d="M212.58,206.93h-4.26c0.61,1.27,1.18,2.54,1.72,3.82h4.18C213.7,209.47,213.15,208.2,212.58,206.93z"/>
	<path class="st2" d="M237.79,72.94v3.87c0.66-0.02,1.31-0.1,1.97-0.1c0.61,0,1.23,0.03,1.84,0.05v-3.82
		C240.33,72.9,239.06,72.9,237.79,72.94z"/>
</g>
</svg>
