<?xml version="1.0" encoding="utf-8"?>
<!-- Generator: Adobe Illustrator 25.0.0, SVG Export Plug-In . SVG Version: 6.00 Build 0)  -->
<svg version="1.1" id="Layer_1" xmlns="http://www.w3.org/2000/svg" xmlns:xlink="http://www.w3.org/1999/xlink" x="0px" y="0px"
	 viewBox="0 0 500 350" style="enable-background:new 0 0 500 350;" xml:space="preserve">
<style type="text/css">
	.st0{fill:#E8E5DE;}
	.st1{fill:none;stroke:#1D252C;stroke-width:4.4425;stroke-miterlimit:10;}
</style>
<g>
	<path class="st0" d="M272.01,319.79c4.36-0.41,8.68-1.03,12.99-1.62c5.18-0.71,10.32-1.5,15.42-2.44
		c5.19-0.95,10.29-2.03,15.36-3.22c4.31-1.01,8.69-1.98,12.88-3.19c8.99-2.59,17.84-5.38,26.29-8.64
		c8.81-3.4,17.12-7.27,25.19-11.35c4.26-2.15,8.17-4.59,12.13-6.96c2.97-1.78,5.89-3.61,8.62-5.54c6.92-4.91,13.37-10.04,19.3-15.46
		c3.01-2.75,5.76-5.66,8.39-8.57c2.09-2.31,4.1-4.65,5.86-7.07c2.41-3.32,5-6.62,6.92-10.07c1.93-3.46,3.72-6.94,5.42-10.44
		c1.2-2.48,2.21-5.01,3.1-7.54c1.19-3.4,2.33-6.83,3.16-10.28c1.36-5.71,2.43-11.41,2.94-17.18c0.32-3.62,0.48-7.24,0.48-10.86
		c0-8.99-1.02-17.98-3.22-26.87c-1.61-6.5-3.74-12.92-6.14-19.32c-2.32-6.17-5.58-12.18-8.97-18.13
		c-2.93-5.13-6.35-10.16-10.21-15.03c-4.52-5.68-9.29-11.23-14.95-16.48c-3.23-2.99-6.54-5.92-10.08-8.76
		c-2.75-2.2-5.68-4.28-8.65-6.36c-7.25-5.05-15.04-9.69-23.33-14.02c-7.77-4.06-15.85-7.75-24.36-11.13
		c-3.53-1.4-7.13-2.75-10.86-3.92c-4.97-1.57-10-3.16-15.2-4.39c-9.21-2.17-18.52-4.01-28.15-5.21
		c-11.53-1.43-23.35-1.82-35.04-1.05c-20.51,1.35-40.49,5.56-58.08,12.54c-9.39,3.72-18.07,8.15-25.98,13.09
		c-6.87,4.29-13.05,8.92-19.1,13.69c-10.36,8.16-19.92,16.74-30.21,24.94c-4.99,3.83-10.15,7.55-15.45,11.2
		c-5.76,3.96-11.66,7.84-17.67,11.64c-6.03,3.82-12.16,7.58-18.08,11.47c-6.64,4.37-12.88,9-18.6,13.88
		c-3.22,2.75-6.17,5.72-8.75,8.73c-2.56,2.99-4.94,6.07-6.93,9.23c-3.94,6.26-6.66,12.73-8.45,19.38
		c-1.57,5.83-1.94,11.77-1.86,17.68c0.08,5.92,0.75,11.86,1.65,17.75c0.92,6.05,2.34,12.03,4.42,17.97c2,5.71,4.73,11.31,8.27,16.71
		c1.99,3.03,4.35,5.98,6.79,8.87c1.96,2.32,4.05,4.6,6.36,6.79c2.87,2.72,5.84,5.37,9.1,7.9c3.11,2.41,6.45,4.72,9.89,6.93
		c5.92,3.82,12.47,7.28,19.39,10.31c1.88,0.82,3.77,1.62,5.69,2.39c1.53,0.81,3.07,1.59,4.64,2.36c7.79,3.84,16.05,7.35,24.67,10.37
		c5.02,1.76,10.16,3.32,15.33,4.87c3.61,1.08,7.35,2.09,11.11,2.95c9.29,2.13,18.68,4.06,28.3,5.47c9.61,1.4,19.34,2.51,29.14,3.13
		c9.54,0.6,19.22,0.89,28.8,0.64C251.83,321.34,261.93,320.72,272.01,319.79z"/>
	<g>
		<circle class="st1" cx="184.72" cy="259.03" r="44.1"/>
		<circle class="st1" cx="443.94" cy="259.03" r="44.1"/>
		<line class="st1" x1="184.72" y1="171.5" x2="184.72" y2="214.93"/>
		<polygon class="st1" points="314.33,86.15 264.5,172.46 364.16,172.46 		"/>
		<line class="st1" x1="400.92" y1="129.3" x2="339.25" y2="129.3"/>
		<line class="st1" x1="289.42" y1="129.3" x2="227.74" y2="129.3"/>
		<line class="st1" x1="139.67" y1="129.3" x2="96.24" y2="129.3"/>
		<line class="st1" x1="401.06" y1="259.03" x2="357.62" y2="259.03"/>
		<line class="st1" x1="272.26" y1="259.03" x2="228.82" y2="259.03"/>
		
			<rect x="400.65" y="86.01" transform="matrix(-1.836970e-16 1 -1 -1.836970e-16 573.2454 -314.636)" class="st1" width="86.59" height="86.59"/>
		
			<rect x="141.43" y="86.01" transform="matrix(-1.836970e-16 1 -1 -1.836970e-16 314.0277 -55.4184)" class="st1" width="86.59" height="86.59"/>
		
			<rect x="271.04" y="215.74" transform="matrix(-1.836970e-16 1 -1 -1.836970e-16 573.3664 -55.2974)" class="st1" width="86.59" height="86.59"/>
		
			<rect x="11.96" y="86.01" transform="matrix(-1.836970e-16 1 -1 -1.836970e-16 184.5547 74.0546)" class="st1" width="86.59" height="86.59"/>
	</g>
</g>
</svg>
